<svg width="255" height="249" viewBox="0 0 255 249" fill="none" xmlns="http://www.w3.org/2000/svg">
<path d="M178.588 74.495C178.588 102.303 156.045 124.846 128.237 124.846C100.429 124.846 77.8866 102.303 77.8866 74.495C77.8866 46.6872 100.429 24.1445 128.237 24.1445C156.045 24.1445 178.588 46.6872 178.588 74.495Z" fill="#E67300"/>
<path d="M249.658 57.9289C222.781 21.6689 177.089 0 127.5 0C77.9111 0 32.2194 21.6689 5.3419 57.9289C-1.78063 67.5111 -1.78063 79.4889 5.3419 89.0711C32.2194 125.331 77.9111 147 127.5 147C177.089 147 222.781 125.331 249.658 89.0711C256.781 79.4889 256.781 67.5111 249.658 57.9289ZM232.322 80.6867C209.073 111.938 169.966 130.667 127.5 130.667C85.0336 130.667 45.7925 111.938 22.6779 80.6867C19.4526 76.2222 19.4526 70.7778 22.6779 66.3133C45.9269 34.9533 85.0336 16.3333 127.5 16.3333C169.966 16.3333 209.208 35.0622 232.322 66.3133C235.547 70.7778 235.547 76.2222 232.322 80.6867Z" fill="#002E57"/>
<path d="M148.65 74.4947C148.65 85.7682 139.511 94.9071 128.237 94.9071C116.964 94.9071 107.825 85.7682 107.825 74.4947C107.825 63.2213 116.964 54.0824 128.237 54.0824C139.511 54.0824 148.65 63.2213 148.65 74.4947Z" fill="#002E57"/>
<circle cx="195.351" cy="193.371" r="22.6481" transform="rotate(-15 195.351 193.371)" fill="#002E57"/>
<path d="M205.392 204.952C206.682 209.766 203.819 214.688 199.03 215.972C182.903 220.347 166.047 221.496 149.48 219.363C133.588 217.321 118.219 212.26 104.247 204.407C90.3526 196.642 78.0944 186.267 68.2061 173.789C57.9997 160.936 50.547 146.095 46.3289 130.251C45.0389 125.437 47.9023 120.515 52.6912 119.232C57.4802 117.948 62.4464 120.773 63.7364 125.587C78.6256 181.154 137.241 213.925 194.379 198.615C199.161 197.306 204.109 200.163 205.392 204.952Z" fill="#002E57"/>
</svg>
