<svg width="625" height="274" viewBox="0 0 625 274" fill="none" xmlns="http://www.w3.org/2000/svg">


  <path d="M178.588 74.495C178.588 102.303 156.045 124.846 128.237 124.846C100.429 124.846 77.8866 102.303 77.8866 74.495C77.8866 46.6872 100.429 24.1445 128.237 24.1445C156.045 24.1445 178.588 46.6872 178.588 74.495Z" fill="#E67300"/>
  <path d="M249.658 57.9289C222.781 21.6689 177.089 0 127.5 0C77.9111 0 32.2194 21.6689 5.3419 57.9289C-1.78063 67.5111 -1.78063 79.4889 5.3419 89.0711C32.2194 125.331 77.9111 147 127.5 147C177.089 147 222.781 125.331 249.658 89.0711C256.781 79.4889 256.781 67.5111 249.658 57.9289ZM232.322 80.6867C209.073 111.938 169.966 130.667 127.5 130.667C85.0336 130.667 45.7925 111.938 22.6779 80.6867C19.4526 76.2222 19.4526 70.7778 22.6779 66.3133C45.9269 34.9533 85.0336 16.3333 127.5 16.3333C169.966 16.3333 209.208 35.0622 232.322 66.3133C235.547 70.7778 235.547 76.2222 232.322 80.6867Z" fill="#002E57"/>
  <path d="M148.65 74.4947C148.65 85.7682 139.511 94.9071 128.237 94.9071C116.964 94.9071 107.825 85.7682 107.825 74.4947C107.825 63.2213 116.964 54.0824 128.237 54.0824C139.511 54.0824 148.65 63.2213 148.65 74.4947Z" fill="#002E57"/>
  <circle cx="195.351" cy="193.371" r="22.6481" transform="rotate(-15 195.351 193.371)" fill="#002E57"/>
  <path d="M205.392 204.952C206.682 209.766 203.819 214.688 199.03 215.972C182.903 220.347 166.047 221.496 149.48 219.363C133.588 217.321 118.219 212.26 104.247 204.407C90.3526 196.642 78.0944 186.267 68.2061 173.789C57.9997 160.936 50.547 146.095 46.3289 130.251C45.0389 125.437 47.9023 120.515 52.6912 119.232C57.4802 117.948 62.4464 120.773 63.7364 125.587C78.6256 181.154 137.241 213.925 194.379 198.615C199.161 197.306 204.109 200.163 205.392 204.952Z" fill="#002E57"/>
  <path d="M272.167 263.6C267.367 263.6 262.834 262.8 258.567 261.2C254.434 259.6 250.901 257.267 247.967 254.2L252.967 246.6C255.634 249.4 258.501 251.467 261.567 252.8C264.767 254.133 268.367 254.8 272.367 254.8C277.167 254.8 281.367 253.467 284.967 250.8C288.701 248.133 292.167 243.267 295.367 236.2L302.567 220.2L303.967 218.4L348.167 119.6H358.367L304.767 238.2C301.967 244.6 298.901 249.6 295.567 253.2C292.367 256.933 288.834 259.6 284.967 261.2C281.101 262.8 276.834 263.6 272.167 263.6ZM302.367 226.6L253.967 119.6H264.567L308.567 217.8L302.367 226.6ZM380.231 224V75.6H390.231V224H380.231ZM562.38 118.8C570.78 118.8 578.046 120.467 584.18 123.8C590.446 127 595.313 131.933 598.78 138.6C602.246 145.133 603.98 153.267 603.98 163V224H593.98V163.8C593.98 152.067 591.113 143.133 585.38 137C579.646 130.867 571.646 127.8 561.38 127.8C553.513 127.8 546.713 129.467 540.98 132.8C535.246 136.133 530.846 140.8 527.78 146.8C524.713 152.8 523.18 160 523.18 168.4V224H513.18V163.8C513.18 152.067 510.313 143.133 504.58 137C498.846 130.867 490.846 127.8 480.58 127.8C472.713 127.8 465.913 129.467 460.18 132.8C454.446 136.133 450.046 140.8 446.98 146.8C443.913 152.8 442.38 160 442.38 168.4V224H432.38V119.6H441.98V148.4L440.58 145.2C443.646 137.067 448.78 130.667 455.98 126C463.18 121.2 471.846 118.8 481.98 118.8C492.38 118.8 501.113 121.467 508.18 126.8C515.38 132 519.913 139.8 521.78 150.2L518.38 148.8C521.18 139.867 526.446 132.667 534.18 127.2C541.913 121.6 551.313 118.8 562.38 118.8Z" fill="#002E57"/>
</svg>